<svg xmlns="http://www.w3.org/2000/svg" viewBox="0 0 1366 768"><defs><style>.a{fill:#e6e6e6;}.b{opacity:0.6;}.c{fill:#b4b6ff;}</style></defs><rect width="1366" height="768"/><path class="a" d="M112.89362,111H1253.10638A112.89362,112.89362,0,0,1,1366,223.89362V768a0,0,0,0,1,0,0H0a0,0,0,0,1,0,0V223.89362A112.89362,112.89362,0,0,1,112.89362,111Z"/><circle cx="853" cy="159" r="25"/><circle cx="1023" cy="159" r="25"/><circle cx="173" cy="159" r="25"/><circle cx="1193" cy="159" r="25"/><circle cx="513" cy="159" r="25"/><circle cx="683" cy="159" r="25"/><circle cx="343" cy="159" r="25"/><g class="b"><rect class="c" x="34.2" y="357.75" width="1300" height="5"/><rect class="c" x="34.2" y="436.5625" width="1300" height="5"/><rect class="c" x="34.2" y="515.375" width="1300" height="5"/><rect class="c" x="34.2" y="594.1875" width="1300" height="5"/><rect class="c" x="34.2" y="673" width="1300" height="5"/></g></svg>